<!-- Generated by IcoMoon.io -->
<svg version="1.1" xmlns="http://www.w3.org/2000/svg" width="32" height="32" viewBox="0 0 32 32">
<title>icon_lock-open</title>
<path d="M2 30c-0.002 0.034-0.003 0.073-0.003 0.113 0 1.044 0.846 1.89 1.89 1.89 0.040 0 0.079-0.001 0.119-0.004l-0.005 0h24c0.034 0.002 0.073 0.003 0.113 0.003 1.044 0 1.89-0.846 1.89-1.89 0-0.040-0.001-0.079-0.004-0.119l0 0.005v-18c0.002-0.034 0.003-0.073 0.003-0.113 0-1.044-0.846-1.89-1.89-1.89-0.040 0-0.079 0.001-0.119 0.004l0.005-0h-16v-2c0.007-2.206 1.794-3.993 3.999-4h0.001c0.044-0.002 0.096-0.003 0.148-0.003 1.157 0 2.187 0.546 2.846 1.395l0.006 0.008 1.4 1.4 3-2.6-1.4-1.6c-1.531-1.562-3.645-2.546-5.99-2.6l-0.010-0c-4.413 0.014-7.986 3.587-8 7.999v2.001h-4c-0.034-0.002-0.074-0.003-0.113-0.003-1.044 0-1.89 0.846-1.89 1.89 0 0.040 0.001 0.079 0.004 0.119l-0-0.005zM16 16c2.206 0.007 3.993 1.794 4 3.999v0.001c0 0.003 0 0.007 0 0.011 0 1.451-0.799 2.716-1.98 3.379l-0.020 0.010v2.6h-4v-2.6c-1.201-0.673-2-1.938-2-3.389 0-0.004 0-0.007 0-0.011v0.001c0.007-2.206 1.794-3.993 3.999-4h0.001z"></path>
</svg>
