<!-- Generated by IcoMoon.io -->
<svg version="1.1" xmlns="http://www.w3.org/2000/svg" width="32" height="32" viewBox="0 0 32 32">
<title>icon_notification</title>
<path d="M10.667 28.952h6.095c-0.005 1.681-1.367 3.042-3.047 3.048h-0.001c-1.681-0.005-3.042-1.367-3.048-3.047v-0zM3.048 27.429c-0.026 0.002-0.056 0.003-0.086 0.003-0.795 0-1.44-0.645-1.44-1.44 0-0.030 0.001-0.061 0.003-0.090l-0 0.004c-0.002-0.026-0.003-0.056-0.003-0.086 0-0.795 0.645-1.44 1.44-1.44 0.030 0 0.061 0.001 0.091 0.003l-0.004-0h0.762c1.301-1.127 2.157-2.738 2.285-4.55l0.001-0.021v-4.571c-0-0.022-0-0.048-0-0.073 0-4.168 3.378-7.546 7.546-7.546 0.026 0 0.052 0 0.077 0l-0.004-0c0.022-0 0.049-0 0.075-0 4.167 0 7.544 3.378 7.544 7.544 0 0.026-0 0.053-0 0.079l0-0.004v4.571c0.128 1.833 0.984 3.445 2.277 4.564l0.008 0.007h0.762c0.026-0.002 0.056-0.003 0.086-0.003 0.795 0 1.44 0.645 1.44 1.44 0 0.030-0.001 0.061-0.003 0.090l0-0.004c0.002 0.026 0.003 0.056 0.003 0.086 0 0.795-0.645 1.44-1.44 1.44-0.030 0-0.061-0.001-0.090-0.003l0.004 0z"></path>
<path stroke-linejoin="miter" stroke-linecap="butt" stroke-miterlimit="4" stroke-width="3.0476" stroke="#000" fill="#000" d="M30.476 6.095c0 3.366-2.729 6.095-6.095 6.095s-6.095-2.729-6.095-6.095c0-3.366 2.729-6.095 6.095-6.095s6.095 2.729 6.095 6.095z"></path>
<path fill="none" stroke-linejoin="miter" stroke-linecap="butt" stroke-miterlimit="4" stroke-width="3.0476" stroke="#000" d="M32 6.095c0 4.208-3.411 7.619-7.619 7.619s-7.619-3.411-7.619-7.619c0-4.208 3.411-7.619 7.619-7.619s7.619 3.411 7.619 7.619z"></path>
</svg>
