<!-- Generated by IcoMoon.io -->
<svg version="1.1" xmlns="http://www.w3.org/2000/svg" width="32" height="32" viewBox="0 0 32 32">
<title>icon_setting</title>
<path d="M26.6 10.4l2.2-4.2-2.8-2.8-4.2 2.2c-0.635-0.364-1.372-0.642-2.155-0.793l-0.045-0.007-1.6-4.8h-4l-1.6 4.6c-0.76 0.198-1.425 0.472-2.041 0.822l0.041-0.022-4.2-2.2-3 3 2.2 4.2c-0.328 0.575-0.602 1.24-0.787 1.942l-0.013 0.058-4.6 1.6v4l4.6 1.6c0.2 0.8 0.6 1.4 0.8 2.2l-2.2 4.2 2.8 2.8 4.2-2.2c0.635 0.364 1.372 0.642 2.155 0.793l0.045 0.007 1.6 4.6h4l1.6-4.6c0.8-0.2 1.4-0.6 2.2-0.8l4.2 2.2 2.8-2.8-2.2-4.2c0.364-0.635 0.642-1.372 0.793-2.155l0.007-0.045 4.6-1.6v-4l-4.6-1.6c-0.198-0.76-0.472-1.425-0.822-2.041l0.022 0.041zM16 22c-0.032 0.001-0.071 0.001-0.109 0.001-3.254 0-5.892-2.638-5.892-5.892 0-0.038 0-0.077 0.001-0.115l-0 0.006c-0.001-0.032-0.001-0.071-0.001-0.109 0-3.254 2.638-5.892 5.892-5.892 0.038 0 0.077 0 0.115 0.001l-0.006-0c0.032-0.001 0.071-0.001 0.109-0.001 3.254 0 5.892 2.638 5.892 5.892 0 0.038-0 0.077-0.001 0.115l0-0.006c0.001 0.032 0.001 0.071 0.001 0.109 0 3.254-2.638 5.892-5.892 5.892-0.038 0-0.077-0-0.115-0.001l0.006 0z"></path>
</svg>
