<!-- Generated by IcoMoon.io -->
<svg version="1.1" xmlns="http://www.w3.org/2000/svg" width="32" height="32" viewBox="0 0 32 32">
<title>icon_add-user</title>
<path d="M24.002 32.002v-4h-4v-4h4v-4h4v4h4v4h-4v4zM0 32.002v-2c-0-0.029-0.001-0.064-0.001-0.099 0-5.469 4.434-9.903 9.903-9.903 0.035 0 0.069 0 0.104 0.001l-0.005-0h6v4h-6c-0.020-0-0.044-0-0.067-0-2.565 0-4.743 1.657-5.521 3.96l-0.012 0.041h11.601v4zM6 10.001v-2c0.014-4.413 3.587-7.987 7.999-8.001h0.001c4.413 0.014 7.987 3.587 8.001 7.999v2.001c-0.014 4.413-3.587 7.987-7.999 8.001h-0.001c-4.413-0.014-7.987-3.587-8.001-7.999v-0.001zM10.001 8.001v2c0.007 2.207 1.794 3.993 4 4h0.001c2.207-0.007 3.993-1.794 4-4v-2.001c-0.007-2.207-1.794-3.993-4-4h-0.001c-2.207 0.007-3.993 1.794-4 4v0.001z"></path>
</svg>
