<!-- Generated by IcoMoon.io -->
<svg version="1.1" xmlns="http://www.w3.org/2000/svg" width="32" height="32" viewBox="0 0 32 32">
<title>icon_chat-notification</title>
<path d="M22.615 27.782c-0.785 0.139-1.69 0.219-2.613 0.22h-0.001c-0.047 0.001-0.103 0.001-0.159 0.001-2.746 0-5.314-0.759-7.507-2.080l0.066 0.037c0.2 0 0.4 0.042 0.61 0.042 8.321 0 15.249-5.304 16.707-12.279 1.377 1.344 2.243 3.206 2.284 5.271l0 0.008c-0.031 1.939-0.796 3.694-2.028 5.004l0.004-0.004h0.024v8.001zM2 16.845c-1.234-1.602-1.983-3.633-2-5.838l-0-0.004c0-6.076 5.82-11.001 13.001-11.001s13.001 4.924 13.001 11.001-5.82 11.001-13.001 11.001c-0.006 0-0.012 0-0.019 0-2.011 0-3.93-0.398-5.68-1.12l0.099 0.036-5.4 3.082z"></path>
</svg>
