<!-- Generated by IcoMoon.io -->
<svg version="1.1" xmlns="http://www.w3.org/2000/svg" width="32" height="32" viewBox="0 0 32 32">
<title>icon_cart</title>
<path d="M22.028 28c0-2.209 1.791-4 4-4v0c2.209 0 4 1.791 4 4v0c0 2.209-1.791 4-4 4v0c-2.209 0-4-1.791-4-4v0zM2.028 28c0-2.209 1.791-4 4-4v0c2.209 0 4 1.791 4 4v0c0 2.209-1.791 4-4 4v0c-2.209 0-4-1.791-4-4v0zM0 22v-4h24.522l2.854-10h-23.348v-4h-4v-4h6c1.105 0 2 0.895 2 2v0 2h22c1.104 0.031 1.986 0.933 1.986 2.041 0 0.181-0.023 0.356-0.068 0.523l0.003-0.014-4 14c-0.247 0.844-1.014 1.45-1.923 1.45-0 0-0.001 0-0.001 0h0zM2 16v-2h8v2zM4 12v-2h8v2z"></path>
</svg>
