<!-- Generated by IcoMoon.io -->
<svg version="1.1" xmlns="http://www.w3.org/2000/svg" width="32" height="32" viewBox="0 0 32 32">
<title>icon_process</title>
<path d="M25.2 26.002c-2.515 2.473-5.967 4-9.776 4-0.008 0-0.017 0-0.025-0h0.001c-0.069 0.001-0.15 0.002-0.231 0.002-3.744 0-7.131-1.531-9.568-4l-0.001-0.001c-2.008-1.982-3.382-4.602-3.792-7.531l-0.008-0.069 4-0.6c0.423 2.116 1.413 3.953 2.804 5.404l-0.004-0.004c1.805 1.762 4.275 2.849 7 2.849s5.195-1.087 7.002-2.851l-0.002 0.002-4.2-4.2 12.8-1.4-1.6 12.8zM1.4 2.002l4.4 4.4c2.547-2.504 6.043-4.050 9.9-4.050s7.353 1.546 9.902 4.052l-0.002-0.002c2.007 1.982 3.381 4.602 3.792 7.53l0.008 0.070-4 0.6c-0.423-2.116-1.413-3.954-2.804-5.404l0.004 0.004c-1.805-1.762-4.275-2.849-7-2.849s-5.195 1.087-7.002 2.851l0.002-0.002 4.2 4.2-12.8 1.4z"></path>
</svg>
