<!-- Generated by IcoMoon.io -->
<svg version="1.1" xmlns="http://www.w3.org/2000/svg" width="32" height="32" viewBox="0 0 32 32">
<title>icon_search</title>
<path d="M25.4 22.46c1.747-2.259 2.8-5.132 2.8-8.25 0-0.034-0-0.069-0-0.103l0 0.005c0-0.021 0-0.047 0-0.072 0-7.74-6.263-14.017-13.998-14.040h-0.002c-7.809 0.005-14.144 6.31-14.2 14.107l-0 0.005c0.056 7.802 6.391 14.107 14.199 14.112h0.001c0.073 0.001 0.159 0.002 0.245 0.002 3.085 0 5.925-1.048 8.185-2.807l-0.030 0.022 6 5.962c0.354 0.368 0.85 0.596 1.4 0.596s1.046-0.228 1.399-0.596l0.001-0.001c0.369-0.35 0.599-0.843 0.599-1.391s-0.23-1.041-0.598-1.39l-0.001-0.001zM14.2 24.060c-0.047 0.001-0.101 0.001-0.156 0.001-5.514 0-9.99-4.443-10.043-9.944l-0-0.005c0-5.633 4.567-10.2 10.2-10.2s10.2 4.567 10.2 10.2v0c-0.059 5.502-4.533 9.939-10.043 9.939-0.055 0-0.11-0-0.165-0.001l0.008 0z"></path>
</svg>
