<!-- Generated by IcoMoon.io -->
<svg version="1.1" xmlns="http://www.w3.org/2000/svg" width="32" height="32" viewBox="0 0 32 32">
<title>icon_media</title>
<path d="M29.333 0h-26.666c-1.471 0.004-2.663 1.196-2.667 2.667v26.666c0.004 1.471 1.196 2.663 2.667 2.667h26.666c1.471-0.004 2.663-1.196 2.667-2.667v-26.666c-0.004-1.471-1.196-2.663-2.667-2.667h-0zM5.334 28.001h-2.667v-2.667h2.667zM5.334 21.334h-2.667v-2.667h2.667zM5.334 13.333h-2.667v-2.667h2.667zM5.334 6.666h-2.667v-2.667h2.667zM24.001 26.666h-16v-9.331h16zM24.001 14.665h-16v-9.331h16zM29.335 27.998h-2.669v-2.665h2.667zM29.335 21.332h-2.669v-2.665h2.667zM29.335 13.331h-2.669v-2.665h2.667zM29.335 6.664h-2.669v-2.665h2.667z"></path>
</svg>
