<!-- Generated by IcoMoon.io -->
<svg version="1.1" xmlns="http://www.w3.org/2000/svg" width="32" height="32" viewBox="0 0 32 32">
<title>icon_emoji</title>
<path d="M16 0c-8.837 0-16 7.163-16 16s7.163 16 16 16c8.837 0 16-7.163 16-16v0c-0.026-8.826-7.174-15.974-15.997-16h-0.003zM10.001 10.666c1.104 0 2 0.895 2 2s-0.895 2-2 2c-1.104 0-2-0.895-2-2v0c0.028-1.093 0.907-1.972 1.997-2l0.003-0zM23.601 22.267c-1.91 1.896-4.541 3.068-7.447 3.068-0.054 0-0.109-0-0.163-0.001l0.008 0c-0.047 0.001-0.102 0.001-0.157 0.001-2.905 0-5.537-1.172-7.447-3.069l0.001 0.001c-0.191-0.228-0.307-0.525-0.307-0.848 0-0.732 0.594-1.326 1.326-1.326 0.324 0 0.62 0.116 0.85 0.308l-0.002-0.002c1.465 1.404 3.457 2.268 5.651 2.268 0.029 0 0.058-0 0.087-0l-0.004 0c0.025 0 0.055 0 0.085 0 2.194 0 4.186-0.864 5.654-2.27l-0.003 0.003c0.228-0.191 0.525-0.307 0.848-0.307 0.732 0 1.326 0.594 1.326 1.326 0 0.324-0.116 0.62-0.308 0.85l0.002-0.002zM22.001 14.665c-1.104 0-2-0.895-2-2s0.895-2 2-2c1.104 0 2 0.895 2 2v0c-0.026 1.095-0.907 1.975-1.999 2.002l-0.003 0z"></path>
</svg>
