<!-- Generated by IcoMoon.io -->
<svg version="1.1" xmlns="http://www.w3.org/2000/svg" width="32" height="32" viewBox="0 0 32 32">
<title>icon_customers</title>
<path d="M2 32c0.020-6.619 5.381-11.98 11.998-12h4.002c6.619 0.020 11.98 5.381 12 11.998v0.002zM7.2 28h17.8c-1.425-2.41-4.010-4-6.966-4-0.012 0-0.024 0-0.036 0h-3.798c-0.009-0-0.020-0-0.031-0-2.957 0-5.543 1.59-6.948 3.963l-0.021 0.037zM8 10v-2c0.014-4.413 3.587-7.986 7.999-8h0.001c4.413 0.014 7.986 3.587 8 7.999v2.001c-0.014 4.413-3.587 7.986-7.999 8h-0.001c-4.413-0.014-7.986-3.587-8-7.999v-0.001zM12 8v2c0.007 2.206 1.794 3.993 3.999 4h0.001c2.206-0.007 3.993-1.794 4-3.999v-2.001c-0.007-2.206-1.794-3.993-3.999-4h-0.001c-2.206 0.007-3.993 1.794-4 3.999v0.001z"></path>
</svg>
