<!-- Generated by IcoMoon.io -->
<svg version="1.1" xmlns="http://www.w3.org/2000/svg" width="32" height="32" viewBox="0 0 32 32">
<title>icon_time-countdown</title>
<path d="M0 17.999c-0-0.026-0-0.056-0-0.086 0-7.685 6.23-13.915 13.915-13.915 0.030 0 0.061 0 0.091 0l-0.005-0c0.031-0 0.067-0 0.103-0 3.134 0 6.022 1.053 8.33 2.825l-0.032-0.024 1.8-1.8-1.6-1.6c-0.37-0.353-0.601-0.849-0.601-1.4s0.23-1.047 0.6-1.399l0.001-0.001c0.353-0.369 0.85-0.599 1.4-0.599s1.047 0.23 1.399 0.598l0.001 0.001 6 6c0.37 0.353 0.6 0.85 0.6 1.4s-0.23 1.047-0.599 1.399l-0.001 0.001c-0.335 0.37-0.816 0.601-1.352 0.601-0.017 0-0.034-0-0.050-0.001l0.002 0c-0.014 0-0.031 0.001-0.047 0.001-0.536 0-1.018-0.231-1.352-0.599l-0.001-0.002-1.6-1.6-1.8 1.8c1.748 2.276 2.801 5.164 2.801 8.298 0 0.036-0 0.072-0 0.108l0-0.006c0 0.026 0 0.056 0 0.086 0 7.685-6.23 13.915-13.915 13.915-0.030 0-0.061-0-0.091-0l0.005 0c-0.026 0-0.056 0-0.086 0-7.685 0-13.915-6.23-13.915-13.915 0-0.030 0-0.061 0-0.091l-0 0.005zM4 17.999c-0 0.029-0 0.063-0 0.096 0 5.47 4.434 9.905 9.905 9.905 0.034 0 0.068-0 0.102-0l-0.005 0c0.028 0 0.061 0 0.094 0 5.471 0 9.907-4.435 9.907-9.907 0-0.033-0-0.066-0-0.1l0 0.005c0-0.029 0-0.064 0-0.099 0-5.469-4.434-9.903-9.903-9.903-0.035 0-0.069 0-0.104 0.001l0.005-0c-0.029-0-0.064-0-0.098-0-5.469 0-9.903 4.434-9.903 9.903 0 0.035 0 0.069 0.001 0.104l-0-0.005zM12.001 19.999v-8.001h4v4h4v4z"></path>
</svg>
