<!-- Generated by IcoMoon.io -->
<svg version="1.1" xmlns="http://www.w3.org/2000/svg" width="32" height="32" viewBox="0 0 32 32">
<title>icon_star</title>
<path d="M31.392 13.821c0.348-0.342 0.563-0.818 0.563-1.345 0-0.903-0.634-1.657-1.48-1.843l-0.012-0.002-8.772-1.329-3.717-8.106c-0.301-0.709-0.991-1.197-1.794-1.197s-1.494 0.488-1.79 1.184l-0.005 0.013-3.992 8.106-8.904 1.329c-0.859 0.188-1.493 0.943-1.493 1.845 0 0.526 0.215 1.002 0.563 1.344l0 0 6.378 6.645v0.134l-1.464 8.904c-0.026 0.122-0.040 0.262-0.040 0.405 0 1.139 0.923 2.063 2.063 2.063 0.33 0 0.641-0.077 0.918-0.215l-0.012 0.005 7.443-4.253h0.134l7.443 4.12c0.264 0.132 0.576 0.21 0.906 0.21 1.139 0 2.063-0.923 2.063-2.063 0-0.143-0.015-0.284-0.043-0.419l0.002 0.013-1.464-8.904v-0.134z"></path>
</svg>
