<!-- Generated by IcoMoon.io -->
<svg version="1.1" xmlns="http://www.w3.org/2000/svg" width="32" height="32" viewBox="0 0 32 32">
<title>icon_attached</title>
<path d="M29.236 2.764c-1.786-1.679-4.186-2.724-6.829-2.764l-0.008-0c-2.656 0.012-5.064 1.063-6.84 2.768l0.003-0.003c-0.362 0.389-0.584 0.913-0.584 1.488 0 0.039 0.001 0.078 0.003 0.117l-0-0.005c0.041 0.606 0.253 1.155 0.587 1.608l-0.006-0.008c0.389 0.362 0.913 0.584 1.488 0.584 0.039 0 0.078-0.001 0.117-0.003l-0.005 0c0.606-0.040 1.156-0.251 1.61-0.585l-0.008 0.006c0.978-0.945 2.312-1.527 3.782-1.527s2.804 0.582 3.783 1.528l-0.002-0.002c0.786 0.993 1.273 2.255 1.308 3.629l0 0.008c-0.002 1.482-0.614 2.821-1.599 3.78l-0.001 0.001-12.655 12.652c-0.978 0.945-2.312 1.527-3.782 1.527s-2.804-0.582-3.783-1.528l0.002 0.002c-0.887-0.952-1.436-2.229-1.454-3.634l-0-0.003c0.002-1.483 0.615-2.822 1.601-3.779l0.001-0.001 5.378-5.383c0.283-0.27 0.667-0.436 1.090-0.436s0.807 0.166 1.091 0.436l-0.001-0.001c0.271 0.309 0.437 0.717 0.437 1.163s-0.165 0.854-0.438 1.165l0.002-0.002-3.924 3.929c-0.362 0.389-0.584 0.913-0.584 1.488 0 0.039 0.001 0.078 0.003 0.117l-0-0.005c0.041 0.606 0.253 1.155 0.587 1.608l-0.006-0.008c0.412 0.339 0.945 0.545 1.527 0.545s1.115-0.206 1.531-0.549l-0.004 0.003 3.918-3.927c1.079-1.080 1.747-2.571 1.747-4.218s-0.668-3.139-1.747-4.218v0c-1.058-1.078-2.53-1.746-4.158-1.746-0.014 0-0.028 0-0.042 0h0.002c-0.097-0.007-0.211-0.010-0.325-0.010-1.474 0-2.804 0.617-3.745 1.608l-0.002 0.002-5.392 5.38c-1.794 1.688-2.911 4.077-2.911 6.727 0 0.038 0 0.077 0.001 0.115l-0-0.006c0.012 2.656 1.063 5.064 2.768 6.84l-0.003-0.003c1.786 1.679 4.186 2.724 6.829 2.764l0.008 0c2.656-0.012 5.064-1.063 6.84-2.768l-0.003 0.003 12.652-12.663c1.708-1.691 2.766-4.037 2.766-6.63 0-0.070-0.001-0.139-0.002-0.209l0 0.010c0.006-0.122 0.009-0.266 0.009-0.41 0-2.549-1.001-4.864-2.631-6.574l0.004 0.004z"></path>
</svg>
