<!-- Generated by IcoMoon.io -->
<svg version="1.1" xmlns="http://www.w3.org/2000/svg" width="32" height="32" viewBox="0 0 32 32">
<title>icon_help-center</title>
<path d="M16 0c-8.837 0-16 7.163-16 16s7.163 16 16 16c8.837 0 16-7.163 16-16v0c-0.027-8.826-7.174-15.973-15.997-16h-0.003zM16 20c-2.209 0-4-1.791-4-4s1.791-4 4-4c2.209 0 4 1.791 4 4v0c-0.007 2.206-1.794 3.993-3.999 4h-0.001zM16 4c0.014-0 0.030-0 0.046-0 1.877 0 3.65 0.443 5.221 1.231l-0.067-0.031-3.112 3.112c-0.625-0.197-1.344-0.311-2.089-0.311s-1.464 0.114-2.14 0.324l0.051-0.014-3.11-3.112c1.504-0.757 3.277-1.2 5.154-1.2 0.016 0 0.032 0 0.048 0h-0.002zM4 16c-0-0.014-0-0.030-0-0.046 0-1.877 0.443-3.65 1.231-5.221l-0.031 0.067 3.112 3.112c-0.197 0.625-0.311 1.344-0.311 2.089s0.114 1.464 0.324 2.14l-0.014-0.051-3.112 3.11c-0.757-1.504-1.2-3.277-1.2-5.154 0-0.016 0-0.032 0-0.048v0.002zM16 28c-0.014 0-0.030 0-0.046 0-1.877 0-3.65-0.443-5.221-1.231l0.067 0.031 3.112-3.112c0.625 0.197 1.344 0.311 2.089 0.311s1.464-0.113 2.14-0.324l-0.051 0.014 3.11 3.112c-1.504 0.757-3.277 1.2-5.154 1.2-0.016 0-0.032-0-0.048-0h0.002zM26.8 21.2l-3.112-3.112c0.197-0.625 0.311-1.344 0.311-2.089s-0.113-1.464-0.324-2.14l0.014 0.051 3.112-3.11c0.757 1.518 1.2 3.307 1.2 5.2s-0.443 3.682-1.231 5.269l0.031-0.069z"></path>
</svg>
