<!-- Generated by IcoMoon.io -->
<svg version="1.1" xmlns="http://www.w3.org/2000/svg" width="32" height="32" viewBox="0 0 32 32">
<title>icon_home</title>
<path d="M31.162 10.372l-14-10c-0.323-0.233-0.726-0.372-1.162-0.372s-0.839 0.139-1.168 0.376l0.006-0.004-14 10c-0.51 0.367-0.838 0.959-0.838 1.628 0 1.105 0.895 2 2 2 0.436 0 0.839-0.139 1.168-0.376l-0.006 0.004 0.838-0.598v16.97c0 1.105 0.895 2 2 2v0h20c1.105 0 2-0.895 2-2v0-16.97c0.522 0.521 1.213 0.874 1.984 0.968l0.016 0.002c0.001 0 0.001 0 0.002 0 1.105 0 2-0.895 2-2 0-0.669-0.328-1.261-0.832-1.624l-0.006-0.004zM24 28h-4v-6c0-2.209-1.791-4-4-4s-4 1.791-4 4v0 6h-4v-17.828l8-5.714 8 5.714z"></path>
</svg>
