<!-- Generated by IcoMoon.io -->
<svg version="1.1" xmlns="http://www.w3.org/2000/svg" width="32" height="32" viewBox="0 0 32 32">
<title>icon_dashboard</title>
<path d="M26 32c-0.034 0.002-0.073 0.003-0.113 0.003-1.044 0-1.89-0.846-1.89-1.89 0-0.040 0.001-0.079 0.004-0.119l-0 0.005v-18c-0.002-0.034-0.003-0.073-0.003-0.113 0-1.044 0.846-1.89 1.89-1.89 0.040 0 0.079 0.001 0.119 0.004l-0.005-0h4c0.034-0.002 0.073-0.003 0.113-0.003 1.044 0 1.89 0.846 1.89 1.89 0 0.040-0.001 0.079-0.004 0.119l0-0.005v18c0.002 0.034 0.003 0.073 0.003 0.113 0 1.044-0.846 1.89-1.89 1.89-0.040 0-0.079-0.001-0.119-0.004l0.005 0zM14 32c-0.035 0.002-0.075 0.004-0.116 0.004-1.043 0-1.888-0.845-1.888-1.888 0-0.041 0.001-0.081 0.004-0.121l-0 0.005v-28c-0.002-0.034-0.003-0.073-0.003-0.113 0-1.044 0.846-1.89 1.89-1.89 0.040 0 0.079 0.001 0.119 0.004l-0.005-0h4c0.034-0.002 0.073-0.003 0.113-0.003 1.044 0 1.89 0.846 1.89 1.89 0 0.040-0.001 0.079-0.004 0.119l0-0.005v28c0.002 0.035 0.004 0.075 0.004 0.116 0 1.043-0.845 1.888-1.888 1.888-0.041 0-0.081-0.001-0.121-0.004l0.005 0zM2 32c-0.034 0.002-0.073 0.003-0.113 0.003-1.044 0-1.89-0.846-1.89-1.89 0-0.040 0.001-0.079 0.004-0.119l-0 0.005v-8c-0.002-0.034-0.003-0.073-0.003-0.113 0-1.044 0.846-1.89 1.89-1.89 0.040 0 0.079 0.001 0.119 0.004l-0.005-0h4c0.033-0.002 0.072-0.003 0.111-0.003 1.045 0 1.892 0.847 1.892 1.892 0 0.039-0.001 0.078-0.004 0.117l0-0.005v8c0.002 0.034 0.003 0.073 0.003 0.113 0 1.044-0.846 1.89-1.89 1.89-0.040 0-0.080-0.001-0.119-0.004l0.005 0z"></path>
</svg>
