<!-- Generated by IcoMoon.io -->
<svg version="1.1" xmlns="http://www.w3.org/2000/svg" width="32" height="32" viewBox="0 0 32 32">
<title>icon_money-bag</title>
<path d="M8.334 32c-2.302-0.021-4.326-1.197-5.521-2.976l-0.015-0.024c-0.502-0.861-0.798-1.896-0.798-3s0.296-2.138 0.813-3.029l-0.015 0.029 7.028-12c0.414-0.607 1.103-1 1.883-1 0.012 0 0.023 0 0.035 0l-0.002-0h8.516c0.010-0 0.022-0 0.034-0 0.78 0 1.468 0.393 1.877 0.992l0.005 0.008 7.028 12c0.503 0.861 0.8 1.896 0.8 3s-0.297 2.139-0.815 3.029l0.015-0.029c-1.21 1.803-3.234 2.979-5.533 3l-0.003 0zM11.734 6c-0.018 0.001-0.039 0.001-0.061 0.001-0.56 0-1.066-0.23-1.429-0.601l-0-0-2.13-2c-0.404-0.359-0.657-0.88-0.657-1.46 0-1.077 0.873-1.95 1.95-1.95 0.070 0 0.138 0.004 0.206 0.011l-0.008-0.001h12.774c0.029-0.002 0.063-0.002 0.098-0.002 1.097 0 1.986 0.889 1.986 1.986 0 0.554-0.227 1.056-0.594 1.416l-0 0-2.13 2c-0.363 0.371-0.869 0.601-1.429 0.601-0.021 0-0.043-0-0.064-0.001l0.003 0z"></path>
</svg>
