<!-- Generated by IcoMoon.io -->
<svg version="1.1" xmlns="http://www.w3.org/2000/svg" width="32" height="32" viewBox="0 0 32 32">
<title>icon_calendar</title>
<path d="M4 10v18h24v-18zM26 4h4c0.034-0.002 0.073-0.003 0.113-0.003 1.044 0 1.89 0.846 1.89 1.89 0 0.040-0.001 0.080-0.004 0.119l0-0.005v24c0.002 0.034 0.003 0.073 0.003 0.113 0 1.044-0.846 1.89-1.89 1.89-0.040 0-0.079-0.001-0.119-0.004l0.005 0h-28c-0.034 0.002-0.073 0.003-0.113 0.003-1.044 0-1.89-0.846-1.89-1.89 0-0.040 0.001-0.079 0.004-0.119l-0 0.005v-24c-0.002-0.034-0.003-0.074-0.003-0.113 0-1.044 0.846-1.89 1.89-1.89 0.040 0 0.079 0.001 0.119 0.004l-0.005-0h4v-2c-0.002-0.034-0.003-0.073-0.003-0.113 0-1.044 0.846-1.89 1.89-1.89 0.040 0 0.080 0.001 0.119 0.004l-0.005-0c0.034-0.002 0.074-0.003 0.113-0.003 1.044 0 1.89 0.846 1.89 1.89 0 0.040-0.001 0.079-0.004 0.119l0-0.005v2h12v-2c0-1.105 0.895-2 2-2s2 0.895 2 2v0zM24 24h-4v-4h4zM18 24h-4v-4h4zM24 18h-4v-4h4zM18 18h-4v-4h4zM12 24h-4v-4h4z"></path>
</svg>
