<!-- Generated by IcoMoon.io -->
<svg version="1.1" xmlns="http://www.w3.org/2000/svg" width="32" height="32" viewBox="0 0 32 32">
<title>icon_alert-circle-exc</title>
<path d="M16 0c-8.837 0-16 7.163-16 16s7.163 16 16 16c8.837 0 16-7.163 16-16v0c-0.027-8.826-7.174-15.973-15.997-16h-0.003zM16 24c-0.034 0.002-0.073 0.003-0.113 0.003-1.044 0-1.89-0.846-1.89-1.89 0-0.040 0.001-0.079 0.004-0.119l-0 0.005c-0.002-0.034-0.003-0.073-0.003-0.113 0-1.044 0.846-1.89 1.89-1.89 0.040 0 0.079 0.001 0.119 0.004l-0.005-0c0.034-0.002 0.073-0.003 0.113-0.003 1.044 0 1.89 0.846 1.89 1.89 0 0.040-0.001 0.079-0.004 0.119l0-0.005c0.002 0.034 0.003 0.073 0.003 0.113 0 1.044-0.846 1.89-1.89 1.89-0.040 0-0.079-0.001-0.119-0.004l0.005 0zM18 18h-4v-10h4z"></path>
</svg>
