<svg xmlns="http://www.w3.org/2000/svg" width="640.175" height="638.594" viewBox="0 0 640.175 638.594"><defs><style>.a,.b{fill:none;}.a{stroke:#707070;}.b{stroke:#d7673f;}</style></defs><g transform="translate(-1270.021 -712.859)"><path class="a" d="M-4867.631-2957.681s19.99-261.035,162.927-376.667S-4299-3560.68-4299-3560.68" transform="translate(6209 4274)"/><path class="b" d="M140.226,113.234a193.848,193.848,0,0,1-17.24,59.336A26.1,26.1,0,0,1,133.811,185.4c3.207,11.627-5.212,22.051,2.406,25.659,5.613,2.406,18.041-5.212,27.262-48.511,7.617-34.88-14.433-46.106-23.253-49.313ZM60.443,172.169A190.663,190.663,0,0,1,43.2,112.833c-8.82,2.806-31.673,14.032-24.055,49.313,9.221,43.3,21.65,50.917,27.262,48.511,7.617-3.608-.4-14.032,2.406-25.659a29.8,29.8,0,0,1,11.627-12.829ZM84.1,188.607c.8,12.829,4.009,22.051,8.018,22.051s7.617-9.221,8.018-22.051ZM92.116,11h-.8c-56.93,29.668-44.1,101.032-44.1,101.032C50.019,137.69,58.839,162.146,72.07,184.2h39.29a172.336,172.336,0,0,0,24.857-72.165S148.645,40.668,92.116,11Zm-.4,91.81a8.82,8.82,0,1,1,8.82-8.82,8.9,8.9,0,0,1-8.82,8.82Zm-.4-34.479A15.235,15.235,0,1,1,106.549,53.1,15.228,15.228,0,0,1,91.314,68.331Z" transform="matrix(0.891, 0.454, -0.454, 0.891, 1351.052, 1087.355)"/></g></svg>