<?xml version="1.0" standalone="no"?>
<!DOCTYPE svg PUBLIC "-//W3C//DTD SVG 20010904//EN"
 "http://www.w3.org/TR/2001/REC-SVG-20010904/DTD/svg10.dtd">
<svg version="1.0" xmlns="http://www.w3.org/2000/svg"
 width="260.000000pt" height="260.000000pt" viewBox="0 0 260.000000 260.000000"
 preserveAspectRatio="xMidYMid meet">
<metadata>
Created by potrace 1.11, written by Peter Selinger 2001-2013
</metadata>
<g transform="translate(0.000000,260.000000) scale(0.100000,-0.100000)"
fill="#000000" stroke="none">
<path d="M1240 2422 l0 -178 58 1 57 0 2 178 2 177 -59 0 -60 0 0 -178z"/>
<path d="M2049 2134 l-124 -124 42 -42 42 -42 120 120 c66 65 121 124 121 129
0 6 -17 27 -38 47 l-39 37 -124 -125z"/>
<path d="M382 2217 c-18 -18 -32 -37 -32 -42 0 -6 54 -64 121 -129 l120 -120
42 42 42 42 -120 120 c-66 66 -124 120 -130 120 -6 0 -25 -15 -43 -33z"/>
<path d="M1138 1989 c-129 -32 -251 -101 -341 -193 -263 -270 -273 -680 -22
-974 37 -44 156 -132 218 -161 104 -50 207 -71 322 -67 122 5 176 17 271 60
167 78 282 191 358 357 46 99 64 192 61 309 -4 108 -8 134 -35 208 -92 247
-267 403 -530 469 -54 13 -235 9 -302 -8z"/>
<path d="M0 1300 l0 -60 178 0 177 0 0 60 0 60 -177 0 -178 0 0 -60z"/>
<path d="M2249 1358 c-1 -2 -2 -29 -3 -60 l-1 -58 177 0 178 0 0 60 0 60 -175
0 c-96 0 -175 -1 -176 -2z"/>
<path d="M467 551 c-64 -64 -117 -121 -117 -127 0 -12 65 -74 77 -74 5 0 62
54 128 120 l119 120 -29 31 c-54 56 -51 57 -178 -70z"/>
<path d="M1965 630 l-39 -40 119 -120 c66 -66 124 -120 128 -120 13 0 77 63
77 75 0 10 -232 245 -241 245 -3 0 -23 -18 -44 -40z"/>
<path d="M1241 178 l0 -178 60 0 59 0 -2 177 -3 178 -58 0 -57 1 1 -178z"/>
</g>
</svg>
