<svg xmlns="http://www.w3.org/2000/svg" viewBox="0 0 1120.52 370.98">
  <title>halloween</title>
  <path d="M.49,370.88s34-167,253-127,214-33,328-144,388-99,388-99l151,10" transform="translate(0 0)" style="fill: none;stroke: #a5a5a5;stroke-miterlimit: 10"/>
  <path d="M144.9,97.73c-2.49-1.06-16.32,5.08-16.32,5.08s-.83-2.83-3.08-1.18l-2.13-1.06,2.49-.59s-16-1.3-23.54-5.44A47.59,47.59,0,0,1,89.55,83.89s-1.78-3.43,3.07-4.25,5.56,2.13,5.56,2.13,6-1,5.76-2.49a6.28,6.28,0,0,0-2-3.07s1.35.83,2-1.66-1.5-1.66-1.5-1.66-1.78-1.89-.24-2.36l1.74.24v-1.3h1l-.23-1.66s4.13-.35,5.55,1.3.6,4.38,1.66,4.73,5-4.37,2.13-9.34a6.37,6.37,0,0,0-2.72-1.42s.45-.86-.22-1.18-.68.87-.68.87-5-1.86-5-2.83.86-.83.8-2-1.93-2.12-1.93-2.12,6,1.09,3.79,2.76c0,0,3.38.16.58-2.63a3.83,3.83,0,0,1,2.76.83s.16-2.28-3.75-3.82c0,0,8.41-1.35,12.44-1.07s5-1,5-1,1.66-3.49-21.07-2c0,0-8.12-17.15-10.72-19.63S78.91,21.09,77.61,14c0,0-1.78,13.13,8.28,20.46,0,0-1.07-.12-1.07.71s1.42,1.18,1.42,1.18-.59,6.86-2.6,7.81-2,7.33-1.89,9.7c0,0-12.3,3.66-14.79,7.8s14.19-1.89,14.19-1.89,1,4.73-1.55,5.44-10.86-3.08-15.71,1.65h2.84S54.54,74.43,61.4,76.8c0,0-4-2.13,1.78-4.85,0,0-.71,1.89.59,5.56s-7.92,7.09-9.46,3c-1-2.67-.27-3.47.38-3.71-1.59.27-5.22,1.36-2.87,5.59A5.6,5.6,0,0,0,59.63,85S60,87.8,58.45,87.8c0,0,6.86-.48,9.58-5.8l-.12,1.9,3.19-.72s-10.88,10.18-7.45,20.35c0,0-3.78,1.89-1.3,3.78,0,0-11,13.6-.47,15.26l-4.15,1.34,0-.11a.39.39,0,0,0-.08-.1l.41-.27a.52.52,0,0,0-.52-.89.52.52,0,0,0-.5,0l-1.74,1,1.6-1.32a.51.51,0,1,0-.66-.79l-.19.15a.42.42,0,0,0-.08-.12.52.52,0,0,0-.73,0l-2.29,2.25-.27-.58a1.38,1.38,0,0,0-2.54.11,1.35,1.35,0,0,0-.68.12,1.39,1.39,0,0,0-.76,1,1.38,1.38,0,0,0-2.06,1.51l-29.66-4.06a.53.53,0,0,0-.59.45.52.52,0,0,0,.44.58l7.82,1.07-9-1a.52.52,0,1,0-.12,1L33.84,126l-19-1.17a.52.52,0,0,0-.55.49.51.51,0,0,0,.49.54L17,126a.47.47,0,0,0,0,.17.52.52,0,0,0,.49.54l4.34.21-6.32-.06a.52.52,0,0,0-.37.89l-1.24,0a.52.52,0,0,0,0,1h0l8.1-.13-7.59.65a.52.52,0,0,0-.47.56s0,0,0,0l-.41,0a.52.52,0,0,0,0,1h0l6.74-.48-7.87.82a.52.52,0,0,0,0,1h.05l16.36-1.7-15.45,2.52a.52.52,0,0,0,.08,1h.09l10.28-1.68-9.59,1.94a.52.52,0,0,0-.4.62.51.51,0,0,0,.5.41h.11L28,132.75l-14.2,3.46a.52.52,0,0,0,.12,1H14L35.29,132l-5.77,1.7-14.79,3.35a.52.52,0,0,0-.39.62.52.52,0,0,0,.51.4H15l1.44-.33a.55.55,0,0,0,0,.4.51.51,0,0,0,.5.37.36.36,0,0,0,.14,0l2.44-.72a.53.53,0,0,0,0,.39s0,0,0,0l-3.38,1.08a.52.52,0,0,0,.16,1,.41.41,0,0,0,.16,0l.8-.25-2.49.88a.52.52,0,1,0,.34,1l10.18-3.59-8.54,3.5a.52.52,0,0,0,.2,1,.65.65,0,0,0,.19,0l22.64-9.29-23,9.78a.52.52,0,0,0-.27.68.5.5,0,0,0,.48.31.51.51,0,0,0,.2,0l13.13-5.57-12.93,6.64a.52.52,0,0,0-.22.7.51.51,0,0,0,.46.28.46.46,0,0,0,.23-.06l5.61-2.88-3.68,2a.51.51,0,0,0-.21.7.52.52,0,0,0,.46.27.53.53,0,0,0,.24-.06L30,140.92l-11.25,6.85a.52.52,0,0,0,.27,1,.43.43,0,0,0,.27-.08l16.45-10L22,147.78a.52.52,0,0,0,.28.95.52.52,0,0,0,.29-.09l.19-.13a.54.54,0,0,0,.07.49.51.51,0,0,0,.42.21.55.55,0,0,0,.3-.09l13.75-9.83L23,150.53a.52.52,0,0,0,.32.93.56.56,0,0,0,.32-.11l1.52-1.19a.5.5,0,0,0,.08.14.51.51,0,0,0,.73.08L40.05,139.3,25.84,151a.52.52,0,0,0-.07.73.5.5,0,0,0,.4.19.52.52,0,0,0,.33-.12l5.28-4.35-5,4.7a.51.51,0,0,0,0,.73.5.5,0,0,0,.37.17.54.54,0,0,0,.36-.14l16.6-15.62,5.69-4.69.27.57a1.39,1.39,0,0,0,1.25.79,1.25,1.25,0,0,0,.59-.14,1.35,1.35,0,0,0,.76-1,1.42,1.42,0,0,0,.72.2,1.25,1.25,0,0,0,.59-.14,1.32,1.32,0,0,0,.7-.75h.09a1.44,1.44,0,0,0,.6-.13,1.39,1.39,0,0,0,.75-1.57l3.31.5h.08a.52.52,0,0,0,.51-.44.48.48,0,0,0-.11-.4.57.57,0,0,0,.11-.22.42.42,0,0,0,0-.25l.53,0h0a.51.51,0,0,0,.52-.49.5.5,0,0,0-.49-.54l-2.2-.12,1.72-.39a.52.52,0,0,0,.4-.61.54.54,0,0,0-.32-.38.46.46,0,0,0,.22-.17l8.35-2.42A29.21,29.21,0,0,1,54.9,140a92.54,92.54,0,0,0-18.81,13h2.25s-7.81,11.47,3.07,17.27c0,0-6.26-7.93,2.37-10.77l.36,1.9s2.83-3,5.2-2.49,5.08-2.36,5.08-2.36L54,158.4s5.32-.36,8.28-9.11c0,0,.71,4.38-1.42,6.15,0,0,14.66.36,21-4.14s32.29-25.19,24.36-30.86c0,0,4.26-4.14-3.43-6.39l15.5-4.85s1.65,3.43,4.37,1.19c0,0,2.37.7,2.84-1.54,0,0,2.25,1.65,2.48-2.13l16.92-5.44S147.38,98.8,144.9,97.73ZM57,124.86l0,.16a.58.58,0,0,0-.1-.12Zm35-11.73a14,14,0,0,0-8.77-2.66L76,100.35S77.12,96,79.6,95.09a4.75,4.75,0,0,0,5.11,1.13c3.14-1.13,1.87-3.5,1.87-3.5S105.46,102,110,107.12Z" transform="translate(0 0)"/>
</svg>
