<svg xmlns="http://www.w3.org/2000/svg" viewBox="0 0 95 128">
  <title>nmct</title>
  <rect width="94.72" height="128.54" style="fill: #e85e00"/>
  <polygon points="15.28 21.26 48.19 47.4 48.19 23.85 79.48 23.85 79.48 90.21 56.4 90.21 47.66 81.15 38.91 90.21 15.28 90.21 15.28 21.26" style="fill: #fff"/>
  <polygon points="25.78 116.3 19.4 106.82 19.4 116.3 15.26 116.3 15.26 99.39 19.27 99.39 25.65 108.87 25.65 99.39 29.8 99.39 29.8 116.3 25.78 116.3" style="fill: #fff"/>
  <polygon points="41.95 116.3 45.41 108.27 45.41 116.3 49.11 116.3 49.11 99.39 43.97 99.39 40.59 109.07 37.22 99.39 32.07 99.39 32.07 116.3 35.77 116.3 35.77 108.27 39.23 116.3 41.95 116.3" style="fill: #fff"/>
  <polygon points="74.46 116.3 74.46 103.67 79.53 103.67 79.53 99.39 65.75 99.39 65.75 103.67 70.82 103.67 70.82 116.3 74.46 116.3" style="fill: #fff"/>
  <path d="M65.39,101.17" transform="translate(-2.2 -1.79)" style="fill: none;stroke: #1d1d1b;stroke-miterlimit: 10"/>
  <path d="M65.07,113.89a8.18,8.18,0,0,1-1.4.37,7.25,7.25,0,0,1-3.46-.18,3.34,3.34,0,0,1-1.3-.85,3.79,3.79,0,0,1-.82-1.42,6.33,6.33,0,0,1-.3-2.1,6.08,6.08,0,0,1,.34-2.14,4.3,4.3,0,0,1,.91-1.5,3.88,3.88,0,0,1,1.39-.92,6.54,6.54,0,0,1,3.24-.21,6.37,6.37,0,0,1,1.34.31l.67.21v-3.72l-.24-.08a8.05,8.05,0,0,0-1.54-.39,12.32,12.32,0,0,0-1.86-.14,9.44,9.44,0,0,0-3.58.68,7.47,7.47,0,0,0-2.69,1.87,7.91,7.91,0,0,0-1.64,2.78,10,10,0,0,0-.56,3.42,9.85,9.85,0,0,0,.53,3.28,7,7,0,0,0,1.62,2.63,7.12,7.12,0,0,0,2.67,1.7,10.27,10.27,0,0,0,3.61.59,14.11,14.11,0,0,0,2-.13,8.76,8.76,0,0,0,1.49-.38l.21-.09v-3.81Z" transform="translate(-2.2 -1.79)" style="fill: #fff"/>
</svg>
